<svg width="370" height="433" viewBox="0 0 370 433" fill="none" xmlns="http://www.w3.org/2000/svg">
<g filter="url(#filter0_d_3_143)">
<path d="M120.5 354.038C156.9 353.238 177.333 320.704 183 304.538C142.5 347.038 119 329.538 98 315.038C81.2 303.438 78 271.204 78.5 256.538C78.5 215.728 78.5 192.847 78.5 152.038C78.5 139.238 90.8333 133.704 97 132.537V126.037H15.5V132.537C29.1 134.537 33.8333 145.038 34.5 150.038C34.3333 178.204 34.4 241.738 36 270.538C38 306.538 75 355.038 120.5 354.038Z" fill="url(#paint0_linear_3_143)"/>
<path d="M212 325.038C188.8 353.438 152 359.538 136.5 359.038C182.9 348.638 193.5 302.038 193 280.038C193.586 242.742 194.5 184.538 194.5 184.538C199.7 137.738 238.667 126.037 257.5 126.037H318L326.5 182.538H318C314.8 161.338 291.333 153.038 280 151.538H238.5C238.333 183.538 237.9 248.638 237.5 253.038C237 258.538 241 289.538 212 325.038Z" fill="url(#paint1_linear_3_143)"/>
<path d="M225 128.537C210.2 133.337 200.167 145.871 197 151.538C147 144.738 131.167 169.371 129.5 182.538H121L128 126.537H225V128.537Z" fill="url(#paint2_linear_3_143)"/>
<path d="M179 21.0375C206.6 66.2375 184.167 103.537 169.5 116.537C225.1 98.9375 219.333 35.5375 209.5 6.0375C189.5 2.8375 180.833 14.7042 179 21.0375Z" fill="url(#paint3_linear_3_143)"/>
<path d="M82 118.537H114.5C139.3 94.9375 168.167 90.0375 179.5 90.5375L183 64.5375L172 76.5375L156 64.0375L147 81.5375L127 72.5375L124 93.5375L102.5 88.5375V110.037H82V118.537Z" fill="url(#paint4_linear_3_143)"/>
<path d="M353.5 52.5375C261.1 10.5375 221.333 59.0375 213 88.5375C250.6 60.5375 295.333 57.5375 313 59.5375C268.2 63.5375 231.333 85.8708 218.5 96.5375C282.9 129.337 335.333 80.8708 353.5 52.5375Z" fill="url(#paint5_linear_3_143)"/>
<path d="M254.5 168.537H280.5L298.5 181.537L312 185.537L300 204.537L318 216.537L303 233.537L319.5 248.537L302 262.537L315 279.537L296 289.537V293.537L305 310.537L284.5 316.537L290.5 338.537H270L272 361.537L251.5 359.537L251 381.037L231.5 375.037L227 396.537L209.5 388.037L201.5 406.537L186 394.037C153.167 404.037 78.9 403.637 44.5 322.037C68 359.704 137 415.737 225 338.537C236 325.037 257.3 289.038 254.5 253.038V168.537Z" fill="url(#paint6_linear_3_143)"/>
<path d="M120.5 354.038C156.9 353.238 177.333 320.704 183 304.538C142.5 347.038 119 329.538 98 315.038C81.2 303.438 78 271.204 78.5 256.538C78.5 215.728 78.5 192.847 78.5 152.038C78.5 139.238 90.8333 133.704 97 132.537V126.037H15.5V132.537C29.1 134.537 33.8333 145.038 34.5 150.038C34.3333 178.204 34.4 241.738 36 270.538C38 306.538 75 355.038 120.5 354.038Z" stroke="#CCB2B2"/>
<path d="M212 325.038C188.8 353.438 152 359.538 136.5 359.038C182.9 348.638 193.5 302.038 193 280.038C193.586 242.742 194.5 184.538 194.5 184.538C199.7 137.738 238.667 126.037 257.5 126.037H318L326.5 182.538H318C314.8 161.338 291.333 153.038 280 151.538H238.5C238.333 183.538 237.9 248.638 237.5 253.038C237 258.538 241 289.538 212 325.038Z" stroke="#CCB2B2"/>
<path d="M225 128.537C210.2 133.337 200.167 145.871 197 151.538C147 144.738 131.167 169.371 129.5 182.538H121L128 126.537H225V128.537Z" stroke="#CCB2B2"/>
<path d="M179 21.0375C206.6 66.2375 184.167 103.537 169.5 116.537C225.1 98.9375 219.333 35.5375 209.5 6.0375C189.5 2.8375 180.833 14.7042 179 21.0375Z" stroke="#CCB2B2"/>
<path d="M82 118.537H114.5C139.3 94.9375 168.167 90.0375 179.5 90.5375L183 64.5375L172 76.5375L156 64.0375L147 81.5375L127 72.5375L124 93.5375L102.5 88.5375V110.037H82V118.537Z" stroke="#CCB2B2"/>
<path d="M353.5 52.5375C261.1 10.5375 221.333 59.0375 213 88.5375C250.6 60.5375 295.333 57.5375 313 59.5375C268.2 63.5375 231.333 85.8708 218.5 96.5375C282.9 129.337 335.333 80.8708 353.5 52.5375Z" stroke="#CCB2B2"/>
<path d="M254.5 168.537H280.5L298.5 181.537L312 185.537L300 204.537L318 216.537L303 233.537L319.5 248.537L302 262.537L315 279.537L296 289.537V293.537L305 310.537L284.5 316.537L290.5 338.537H270L272 361.537L251.5 359.537L251 381.037L231.5 375.037L227 396.537L209.5 388.037L201.5 406.537L186 394.037C153.167 404.037 78.9 403.637 44.5 322.037C68 359.704 137 415.737 225 338.537C236 325.037 257.3 289.038 254.5 253.038V168.537Z" stroke="#CCB2B2"/>
</g>
<defs>
<filter id="filter0_d_3_143" x="0" y="0" width="369.233" height="432.339" filterUnits="userSpaceOnUse" color-interpolation-filters="sRGB">
<feFlood flood-opacity="0" result="BackgroundImageFix"/>
<feColorMatrix in="SourceAlpha" type="matrix" values="0 0 0 0 0 0 0 0 0 0 0 0 0 0 0 0 0 0 127 0" result="hardAlpha"/>
<feOffset dy="10"/>
<feGaussianBlur stdDeviation="7.5"/>
<feComposite in2="hardAlpha" operator="out"/>
<feColorMatrix type="matrix" values="0 0 0 0 0.631373 0 0 0 0 0.533333 0 0 0 0 0.498039 0 0 0 0.3 0"/>
<feBlend mode="normal" in2="BackgroundImageFix" result="effect1_dropShadow_3_143"/>
<feBlend mode="normal" in="SourceGraphic" in2="effect1_dropShadow_3_143" result="shape"/>
</filter>
<linearGradient id="paint0_linear_3_143" x1="184.5" y1="5.49994" x2="184.5" y2="406.537" gradientUnits="userSpaceOnUse">
<stop offset="0.769231" stop-color="#E1B61B"/>
<stop offset="0.918269" stop-color="#FDD835"/>
<stop offset="0.966346" stop-color="#FFC107"/>
</linearGradient>
<linearGradient id="paint1_linear_3_143" x1="184.5" y1="5.49994" x2="184.5" y2="406.537" gradientUnits="userSpaceOnUse">
<stop offset="0.600962" stop-color="#E1B61B"/>
<stop offset="0.884615" stop-color="#FFC107"/>
<stop offset="0.884715" stop-color="#FDD835"/>
</linearGradient>
<linearGradient id="paint2_linear_3_143" x1="184.5" y1="5.49994" x2="184.5" y2="406.537" gradientUnits="userSpaceOnUse">
<stop offset="0.399038" stop-color="#E1B61B"/>
<stop offset="0.504808" stop-color="#FDD835"/>
<stop offset="0.9996" stop-color="#FFC107"/>
</linearGradient>
<linearGradient id="paint3_linear_3_143" x1="184.5" y1="5.49994" x2="184.5" y2="406.537" gradientUnits="userSpaceOnUse">
<stop stop-color="#E1B61B"/>
<stop offset="1" stop-color="#7B640F"/>
</linearGradient>
<linearGradient id="paint4_linear_3_143" x1="184.5" y1="5.49994" x2="184.5" y2="406.537" gradientUnits="userSpaceOnUse">
<stop stop-color="#E1B61B"/>
<stop offset="1" stop-color="#7B640F"/>
</linearGradient>
<linearGradient id="paint5_linear_3_143" x1="184.5" y1="5.49994" x2="184.5" y2="406.537" gradientUnits="userSpaceOnUse">
<stop stop-color="#0B7615"/>
<stop offset="0.144231" stop-color="#0B7A16"/>
<stop offset="1" stop-color="#14DC27"/>
</linearGradient>
<linearGradient id="paint6_linear_3_143" x1="184.5" y1="5.49994" x2="184.5" y2="406.537" gradientUnits="userSpaceOnUse">
<stop stop-color="#1B5E20"/>
<stop offset="0.697115" stop-color="#388E3C"/>
<stop offset="0.831731" stop-color="#0B7615"/>
</linearGradient>
</defs>
</svg>
