<svg width="818" height="528" viewBox="0 0 818 528" fill="none" xmlns="http://www.w3.org/2000/svg">
<g filter="url(#filter0_d_3_142)">
<path d="M332 354.038C368.4 353.238 388.833 320.704 394.5 304.538C354 347.038 330.5 329.538 309.5 315.038C292.7 303.438 289.5 271.204 290 256.538C290 215.728 290 192.847 290 152.038C290 139.238 302.333 133.704 308.5 132.537V126.037H227V132.537C240.6 134.537 245.333 145.038 246 150.038C245.833 178.204 245.9 241.738 247.5 270.538C249.5 306.538 286.5 355.038 332 354.038Z" fill="url(#paint0_linear_3_142)"/>
<path d="M423.5 325.038C400.3 353.438 363.5 359.538 348 359.038C394.4 348.638 405 302.038 404.5 280.038C405.086 242.742 406 184.538 406 184.538C411.2 137.738 450.167 126.037 469 126.037H529.5L538 182.538H529.5C526.3 161.338 502.833 153.038 491.5 151.538H450C449.833 183.538 449.4 248.638 449 253.038C448.5 258.538 452.5 289.538 423.5 325.038Z" fill="url(#paint1_linear_3_142)"/>
<path d="M436.5 128.537C421.7 133.337 411.667 145.871 408.5 151.538C358.5 144.738 342.667 169.371 341 182.538H332.5L339.5 126.537H436.5V128.537Z" fill="url(#paint2_linear_3_142)"/>
<path d="M390.5 21.0375C418.1 66.2375 395.667 103.537 381 116.537C436.6 98.9375 430.833 35.5375 421 6.0375C401 2.8375 392.333 14.7042 390.5 21.0375Z" fill="url(#paint3_linear_3_142)"/>
<path d="M293.5 118.537H326C350.8 94.9375 379.667 90.0375 391 90.5375L394.5 64.5375L383.5 76.5375L367.5 64.0375L358.5 81.5375L338.5 72.5375L335.5 93.5375L314 88.5375V110.037H293.5V118.537Z" fill="url(#paint4_linear_3_142)"/>
<path d="M565 52.5375C472.6 10.5375 432.833 59.0375 424.5 88.5375C462.1 60.5375 506.833 57.5375 524.5 59.5375C479.7 63.5375 442.833 85.8708 430 96.5375C494.4 129.337 546.833 80.8708 565 52.5375Z" fill="url(#paint5_linear_3_142)"/>
<path d="M466 168.537H492L510 181.537L523.5 185.537L511.5 204.537L529.5 216.537L514.5 233.537L531 248.537L513.5 262.537L526.5 279.537L507.5 289.537V293.537L516.5 310.537L496 316.537L502 338.537H481.5L483.5 361.537L463 359.537L462.5 381.037L443 375.037L438.5 396.537L421 388.037L413 406.537L397.5 394.037C364.667 404.037 290.4 403.637 256 322.037C279.5 359.704 348.5 415.737 436.5 338.537C447.5 325.037 468.8 289.038 466 253.038V168.537Z" fill="url(#paint6_linear_3_142)"/>
<path d="M332 354.038C368.4 353.238 388.833 320.704 394.5 304.538C354 347.038 330.5 329.538 309.5 315.038C292.7 303.438 289.5 271.204 290 256.538C290 215.728 290 192.847 290 152.038C290 139.238 302.333 133.704 308.5 132.537V126.037H227V132.537C240.6 134.537 245.333 145.038 246 150.038C245.833 178.204 245.9 241.738 247.5 270.538C249.5 306.538 286.5 355.038 332 354.038Z" stroke="#CCB2B2"/>
<path d="M423.5 325.038C400.3 353.438 363.5 359.538 348 359.038C394.4 348.638 405 302.038 404.5 280.038C405.086 242.742 406 184.538 406 184.538C411.2 137.738 450.167 126.037 469 126.037H529.5L538 182.538H529.5C526.3 161.338 502.833 153.038 491.5 151.538H450C449.833 183.538 449.4 248.638 449 253.038C448.5 258.538 452.5 289.538 423.5 325.038Z" stroke="#CCB2B2"/>
<path d="M436.5 128.537C421.7 133.337 411.667 145.871 408.5 151.538C358.5 144.738 342.667 169.371 341 182.538H332.5L339.5 126.537H436.5V128.537Z" stroke="#CCB2B2"/>
<path d="M390.5 21.0375C418.1 66.2375 395.667 103.537 381 116.537C436.6 98.9375 430.833 35.5375 421 6.0375C401 2.8375 392.333 14.7042 390.5 21.0375Z" stroke="#CCB2B2"/>
<path d="M293.5 118.537H326C350.8 94.9375 379.667 90.0375 391 90.5375L394.5 64.5375L383.5 76.5375L367.5 64.0375L358.5 81.5375L338.5 72.5375L335.5 93.5375L314 88.5375V110.037H293.5V118.537Z" stroke="#CCB2B2"/>
<path d="M565 52.5375C472.6 10.5375 432.833 59.0375 424.5 88.5375C462.1 60.5375 506.833 57.5375 524.5 59.5375C479.7 63.5375 442.833 85.8708 430 96.5375C494.4 129.337 546.833 80.8708 565 52.5375Z" stroke="#CCB2B2"/>
<path d="M466 168.537H492L510 181.537L523.5 185.537L511.5 204.537L529.5 216.537L514.5 233.537L531 248.537L513.5 262.537L526.5 279.537L507.5 289.537V293.537L516.5 310.537L496 316.537L502 338.537H481.5L483.5 361.537L463 359.537L462.5 381.037L443 375.037L438.5 396.537L421 388.037L413 406.537L397.5 394.037C364.667 404.037 290.4 403.637 256 322.037C279.5 359.704 348.5 415.737 436.5 338.537C447.5 325.037 468.8 289.038 466 253.038V168.537Z" stroke="#CCB2B2"/>
</g>
<path d="M28.128 434.321C32.096 434.321 35.168 434.737 37.344 435.569C39.52 436.337 41.376 437.169 42.912 438.065C43.68 438.513 44.288 438.865 44.736 439.121C45.248 439.313 45.728 439.409 46.176 439.409C46.816 439.409 47.264 439.057 47.52 438.353C47.84 437.649 48.096 436.593 48.288 435.185H50.496C50.432 436.465 50.336 437.969 50.208 439.697C50.144 441.425 50.08 443.729 50.016 446.609C50.016 449.425 50.016 453.169 50.016 457.841H47.808C47.552 454.385 46.752 451.057 45.408 447.857C44.064 444.657 42.208 442.001 39.84 439.889C37.536 437.777 34.688 436.721 31.296 436.721C28.352 436.721 25.92 437.553 24 439.217C22.08 440.817 21.12 443.121 21.12 446.129C21.12 448.561 21.728 450.673 22.944 452.465C24.16 454.193 25.984 455.953 28.416 457.745C30.912 459.537 34.048 461.745 37.824 464.369C40.832 466.353 43.52 468.337 45.888 470.321C48.256 472.305 50.144 474.545 51.552 477.041C53.024 479.537 53.76 482.545 53.76 486.065C53.76 490.289 52.608 493.809 50.304 496.625C48 499.377 44.96 501.457 41.184 502.865C37.408 504.209 33.28 504.881 28.8 504.881C24.64 504.881 21.312 504.497 18.816 503.729C16.384 502.961 14.304 502.161 12.576 501.329C11.168 500.433 10.08 499.985 9.312 499.985C8.672 499.985 8.192 500.337 7.872 501.041C7.616 501.745 7.392 502.801 7.2 504.209H4.992C5.12 502.609 5.184 500.753 5.184 498.641C5.248 496.465 5.28 493.681 5.28 490.289C5.344 486.897 5.376 482.577 5.376 477.329H7.584C7.84 481.681 8.544 485.745 9.696 489.521C10.912 493.297 12.736 496.369 15.168 498.737C17.664 501.041 20.96 502.193 25.056 502.193C27.36 502.193 29.376 501.809 31.104 501.041C32.832 500.273 34.208 499.153 35.232 497.681C36.256 496.145 36.768 494.289 36.768 492.113C36.768 489.425 36.16 487.089 34.944 485.105C33.728 483.121 32.064 481.265 29.952 479.537C27.84 477.745 25.376 475.953 22.56 474.161C19.552 472.177 16.736 470.161 14.112 468.113C11.488 466.065 9.376 463.793 7.776 461.297C6.24 458.737 5.472 455.665 5.472 452.081C5.472 447.985 6.528 444.625 8.64 442.001C10.752 439.377 13.536 437.457 16.992 436.241C20.512 434.961 24.224 434.321 28.128 434.321ZM72.639 504.209C69.695 504.209 67.263 503.665 65.343 502.577C63.423 501.425 62.015 499.921 61.119 498.065C60.223 496.209 59.775 494.225 59.775 492.113C59.775 489.425 60.383 487.217 61.599 485.489C62.879 483.761 64.511 482.385 66.495 481.361C68.479 480.273 70.559 479.377 72.735 478.673C74.911 477.969 76.991 477.297 78.975 476.657C80.959 475.953 82.559 475.153 83.775 474.257C84.991 473.297 85.599 472.081 85.599 470.609V462.641C85.599 461.233 85.375 459.921 84.927 458.705C84.543 457.425 83.807 456.401 82.719 455.633C81.695 454.801 80.255 454.385 78.399 454.385C77.247 454.385 76.127 454.545 75.039 454.865C73.951 455.185 72.991 455.697 72.159 456.401C74.207 457.105 75.711 458.161 76.671 459.569C77.695 460.977 78.207 462.545 78.207 464.273C78.207 466.641 77.375 468.529 75.711 469.937C74.111 471.281 72.191 471.953 69.951 471.953C67.519 471.953 65.631 471.185 64.287 469.649C63.007 468.113 62.367 466.257 62.367 464.081C62.367 462.161 62.847 460.561 63.807 459.281C64.767 457.937 66.175 456.721 68.031 455.633C69.887 454.545 72.127 453.745 74.751 453.233C77.375 452.721 80.159 452.465 83.103 452.465C86.111 452.465 88.863 452.785 91.359 453.425C93.919 454.001 96.095 455.185 97.887 456.977C99.295 458.449 100.191 460.241 100.575 462.353C100.959 464.465 101.151 467.153 101.151 470.417V496.337C101.151 497.937 101.279 499.057 101.535 499.697C101.855 500.273 102.335 500.561 102.975 500.561C103.551 500.561 104.095 500.401 104.607 500.081C105.119 499.761 105.631 499.409 106.143 499.025L107.199 500.657C105.791 501.809 104.127 502.705 102.207 503.345C100.287 503.921 98.207 504.209 95.967 504.209C93.407 504.209 91.391 503.889 89.919 503.249C88.511 502.545 87.487 501.617 86.847 500.465C86.271 499.313 85.951 498.033 85.887 496.625C84.479 498.929 82.719 500.785 80.607 502.193C78.495 503.537 75.839 504.209 72.639 504.209ZM80.607 497.297C81.631 497.297 82.527 497.105 83.295 496.721C84.127 496.273 84.895 495.537 85.599 494.513V474.545C85.087 475.441 84.383 476.305 83.487 477.137C82.655 477.905 81.759 478.705 80.799 479.537C79.839 480.305 78.911 481.169 78.015 482.129C77.183 483.089 76.479 484.241 75.903 485.585C75.391 486.865 75.135 488.433 75.135 490.289C75.135 492.785 75.647 494.577 76.671 495.665C77.695 496.753 79.007 497.297 80.607 497.297ZM83.583 424.241C85.439 427.889 87.903 431.505 90.975 435.089C94.111 438.609 97.503 441.521 101.151 443.825L100.383 445.169C96.607 444.337 92.927 443.345 89.343 442.193C85.823 440.977 82.975 439.793 80.799 438.641C79.071 439.793 76.767 440.977 73.887 442.193C71.007 443.345 68.063 444.337 65.055 445.169L64.287 443.825C67.871 441.585 71.199 438.705 74.271 435.185C77.407 431.601 79.935 427.953 81.855 424.241H83.583ZM69.759 401.873C71.103 400.721 72.607 400.305 74.271 400.625C75.999 400.881 77.375 401.617 78.399 402.833C79.551 404.113 80.415 405.585 80.991 407.249C81.567 408.913 82.239 410.929 83.007 413.297C83.839 415.665 85.183 418.609 87.039 422.129L85.983 422.993C83.103 420.433 80.607 418.449 78.495 417.041C76.447 415.633 74.687 414.449 73.215 413.489C71.743 412.465 70.495 411.345 69.471 410.129C68.383 408.785 67.839 407.345 67.839 405.809C67.903 404.209 68.543 402.897 69.759 401.873ZM159.079 452.753V493.073C159.079 495.953 159.495 498.097 160.327 499.505C161.223 500.849 162.727 501.521 164.839 501.521V503.537C162.855 503.345 160.871 503.249 158.887 503.249C155.943 503.249 153.191 503.345 150.631 503.537C148.135 503.729 145.767 504.081 143.527 504.593V496.817C141.991 499.697 139.879 501.777 137.191 503.057C134.567 504.273 131.559 504.881 128.167 504.881C125.351 504.881 123.079 504.529 121.351 503.825C119.687 503.121 118.407 502.193 117.511 501.041C116.487 499.889 115.751 498.353 115.303 496.433C114.855 494.449 114.631 491.857 114.631 488.657V464.273C114.631 461.393 114.215 459.281 113.383 457.937C112.551 456.529 111.047 455.825 108.871 455.825V453.809C110.919 454.001 112.903 454.097 114.823 454.097C117.767 454.097 120.519 454.001 123.079 453.809C125.639 453.553 128.007 453.201 130.183 452.753V493.265C130.183 494.737 130.343 495.985 130.663 497.009C130.983 498.033 131.527 498.833 132.295 499.409C133.063 499.985 134.087 500.273 135.367 500.273C136.839 500.273 138.183 499.889 139.399 499.121C140.615 498.353 141.607 497.297 142.375 495.953C143.143 494.545 143.527 492.977 143.527 491.249V464.273C143.527 461.393 143.111 459.281 142.279 457.937C141.447 456.529 139.943 455.825 137.767 455.825V453.809C139.815 454.001 141.799 454.097 143.719 454.097C146.663 454.097 149.415 454.001 151.975 453.809C154.535 453.553 156.903 453.201 159.079 452.753ZM191.507 435.569C193.235 435.633 195.539 435.697 198.419 435.761C201.299 435.825 204.179 435.857 207.059 435.857C210.195 435.857 213.203 435.825 216.083 435.761C219.027 435.697 221.107 435.665 222.323 435.665C228.595 435.665 233.747 436.305 237.779 437.585C241.875 438.865 244.947 440.753 246.995 443.249C249.043 445.681 250.067 448.721 250.067 452.369C250.067 454.673 249.587 456.945 248.627 459.185C247.731 461.361 246.163 463.377 243.923 465.233C241.747 467.089 238.707 468.561 234.803 469.649C230.963 470.737 226.099 471.281 220.211 471.281H210.995V469.361H219.251C222.771 469.361 225.427 468.657 227.219 467.249C229.075 465.777 230.323 463.857 230.963 461.489C231.667 459.057 232.019 456.369 232.019 453.425C232.019 448.369 231.219 444.465 229.619 441.713C228.019 438.897 225.299 437.489 221.459 437.489C219.091 437.489 217.555 438.033 216.851 439.121C216.211 440.209 215.891 442.417 215.891 445.745V493.361C215.891 495.665 216.051 497.393 216.371 498.545C216.755 499.697 217.427 500.465 218.387 500.849C219.411 501.233 220.915 501.489 222.899 501.617V503.537C221.107 503.409 218.803 503.345 215.987 503.345C213.235 503.281 210.451 503.249 207.635 503.249C204.371 503.249 201.299 503.281 198.419 503.345C195.539 503.345 193.235 503.409 191.507 503.537V501.617C193.491 501.489 194.963 501.233 195.923 500.849C196.947 500.465 197.619 499.697 197.939 498.545C198.323 497.393 198.515 495.665 198.515 493.361V445.745C198.515 443.377 198.323 441.649 197.939 440.561C197.619 439.409 196.947 438.641 195.923 438.257C194.963 437.809 193.491 437.553 191.507 437.489V435.569ZM210.611 469.649C213.107 469.713 215.379 469.841 217.427 470.033C219.475 470.225 221.299 470.417 222.899 470.609C224.563 470.737 226.003 470.833 227.219 470.897C233.555 471.281 238.259 472.497 241.331 474.545C244.467 476.529 246.451 479.505 247.283 483.473L249.299 493.457C249.875 495.889 250.483 497.617 251.123 498.641C251.763 499.601 252.659 500.049 253.811 499.985C254.515 499.985 255.123 499.857 255.635 499.601C256.147 499.281 256.659 498.833 257.171 498.257L258.515 499.505C256.659 501.489 254.643 502.865 252.467 503.633C250.291 504.465 247.763 504.881 244.883 504.881C241.107 504.881 238.003 504.145 235.571 502.673C233.203 501.201 231.699 498.481 231.059 494.513L229.427 484.913C229.043 482.289 228.531 479.953 227.891 477.905C227.315 475.857 226.515 474.257 225.491 473.105C224.467 471.889 223.027 471.281 221.171 471.281H210.803L210.611 469.649ZM271.385 428.753C274.393 428.753 276.729 429.425 278.393 430.769C280.121 432.113 280.984 434.065 280.984 436.625C280.984 439.185 280.121 441.137 278.393 442.481C276.729 443.825 274.393 444.497 271.385 444.497C268.377 444.497 266.009 443.825 264.281 442.481C262.617 441.137 261.785 439.185 261.785 436.625C261.785 434.065 262.617 432.113 264.281 430.769C266.009 429.425 268.377 428.753 271.385 428.753ZM279.833 452.753V494.609C279.833 497.297 280.249 499.121 281.081 500.081C281.977 501.041 283.481 501.521 285.593 501.521V503.537C284.313 503.473 282.425 503.409 279.929 503.345C277.433 503.217 274.905 503.153 272.345 503.153C269.785 503.153 267.161 503.217 264.473 503.345C261.849 503.409 259.865 503.473 258.521 503.537V501.521C260.633 501.521 262.105 501.041 262.937 500.081C263.833 499.121 264.281 497.297 264.281 494.609V464.273C264.281 461.393 263.865 459.281 263.033 457.937C262.201 456.529 260.697 455.825 258.521 455.825V453.809C260.569 454.001 262.553 454.097 264.473 454.097C267.353 454.097 270.073 454.001 272.633 453.809C275.257 453.553 277.657 453.201 279.833 452.753ZM314.704 452.465C320.336 452.465 324.752 454.129 327.952 457.457C331.152 460.785 332.752 466.257 332.752 473.873H301.936L301.84 472.049H319.696C319.824 468.913 319.696 466.033 319.312 463.409C318.928 460.721 318.288 458.577 317.392 456.977C316.56 455.377 315.44 454.577 314.032 454.577C312.112 454.577 310.48 455.953 309.136 458.705C307.792 461.457 306.96 466.129 306.64 472.721L307.024 473.393C306.896 474.097 306.832 474.833 306.832 475.601C306.832 476.305 306.832 477.073 306.832 477.905C306.832 482.321 307.408 485.841 308.56 488.465C309.776 491.089 311.28 492.945 313.072 494.033C314.864 495.121 316.72 495.665 318.64 495.665C319.728 495.665 320.944 495.505 322.288 495.185C323.632 494.865 325.04 494.193 326.512 493.169C327.984 492.145 329.392 490.641 330.736 488.657L332.368 489.233C331.664 491.729 330.448 494.193 328.72 496.625C327.056 498.993 324.912 500.977 322.288 502.577C319.664 504.113 316.496 504.881 312.784 504.881C308.56 504.881 304.784 504.017 301.456 502.289C298.128 500.497 295.472 497.713 293.488 493.937C291.568 490.097 290.608 485.105 290.608 478.961C290.608 472.881 291.664 467.889 293.776 463.985C295.888 460.081 298.768 457.201 302.416 455.345C306.064 453.425 310.16 452.465 314.704 452.465ZM314.8 424.241C316.656 427.889 319.12 431.505 322.192 435.089C325.328 438.609 328.72 441.521 332.368 443.825L331.6 445.169C327.824 444.337 324.144 443.345 320.56 442.193C317.04 440.977 314.192 439.793 312.016 438.641C310.288 439.793 307.984 440.977 305.104 442.193C302.224 443.345 299.28 444.337 296.272 445.169L295.504 443.825C299.088 441.585 302.416 438.705 305.488 435.185C308.624 431.601 311.152 427.953 313.072 424.241H314.8ZM373.945 452.465C376.761 452.465 379.001 452.817 380.665 453.521C382.393 454.225 383.705 455.121 384.601 456.209C385.625 457.425 386.361 458.993 386.809 460.913C387.321 462.833 387.577 465.425 387.577 468.689V494.609C387.577 497.297 387.993 499.121 388.825 500.081C389.721 501.041 391.225 501.521 393.337 501.521V503.537C392.057 503.473 390.137 503.409 387.577 503.345C385.081 503.217 382.649 503.153 380.281 503.153C377.657 503.153 375.129 503.217 372.697 503.345C370.265 503.409 368.441 503.473 367.225 503.537V501.521C369.017 501.521 370.265 501.041 370.969 500.081C371.673 499.121 372.025 497.297 372.025 494.609V464.081C372.025 462.609 371.865 461.361 371.545 460.337C371.225 459.249 370.681 458.449 369.913 457.937C369.145 457.361 368.057 457.073 366.649 457.073C365.177 457.073 363.801 457.457 362.521 458.225C361.305 458.993 360.313 460.081 359.545 461.489C358.841 462.833 358.489 464.369 358.489 466.097V494.609C358.489 497.297 358.841 499.121 359.545 500.081C360.249 501.041 361.497 501.521 363.289 501.521V503.537C362.073 503.473 360.313 503.409 358.009 503.345C355.705 503.217 353.369 503.153 351.001 503.153C348.377 503.153 345.753 503.217 343.129 503.345C340.505 503.409 338.521 503.473 337.177 503.537V501.521C339.289 501.521 340.761 501.041 341.593 500.081C342.489 499.121 342.937 497.297 342.937 494.609V464.273C342.937 461.393 342.521 459.281 341.689 457.937C340.857 456.529 339.353 455.825 337.177 455.825V453.809C339.225 454.001 341.209 454.097 343.129 454.097C346.009 454.097 348.729 454.001 351.289 453.809C353.913 453.553 356.313 453.201 358.489 452.753V460.529C360.025 457.585 362.105 455.505 364.729 454.289C367.417 453.073 370.489 452.465 373.945 452.465ZM414.868 521.585C410.708 521.585 407.06 521.233 403.924 520.529C400.788 519.889 398.356 518.897 396.628 517.553C394.9 516.273 394.036 514.705 394.036 512.849C394.036 510.929 394.932 509.169 396.724 507.569C398.516 506.033 401.268 504.817 404.98 503.921L405.844 505.457C404.756 506.545 403.988 507.601 403.54 508.625C403.092 509.713 402.868 510.769 402.868 511.793C402.868 514.417 404.052 516.433 406.42 517.841C408.788 519.249 412.052 519.953 416.212 519.953C419.092 519.953 421.588 519.537 423.7 518.705C425.812 517.937 427.444 516.817 428.596 515.345C429.748 513.873 430.324 512.145 430.324 510.161C430.324 508.305 429.62 506.737 428.212 505.457C426.868 504.177 424.116 503.537 419.956 503.537H414.388C411.636 503.537 409.268 503.185 407.284 502.481C405.3 501.777 403.764 500.785 402.676 499.505C401.652 498.225 401.14 496.625 401.14 494.705C401.14 491.825 402.26 489.393 404.5 487.409C406.74 485.361 409.844 483.473 413.812 481.745L414.676 482.513C413.716 483.089 412.788 483.761 411.892 484.529C411.06 485.297 410.644 486.321 410.644 487.601C410.644 489.649 411.86 490.673 414.292 490.673H424.18C428.02 490.673 431.412 491.121 434.356 492.017C437.3 492.849 439.604 494.257 441.268 496.241C442.996 498.161 443.86 500.689 443.86 503.825C443.86 507.025 442.836 509.969 440.788 512.657C438.74 515.345 435.572 517.489 431.284 519.089C427.06 520.753 421.588 521.585 414.868 521.585ZM416.116 483.089C412.276 483.089 408.852 482.545 405.844 481.457C402.9 480.369 400.564 478.705 398.836 476.465C397.108 474.161 396.244 471.249 396.244 467.729C396.244 464.209 397.108 461.329 398.836 459.089C400.564 456.849 402.9 455.185 405.844 454.097C408.852 453.009 412.276 452.465 416.116 452.465C419.892 452.465 423.284 453.009 426.292 454.097C429.3 455.185 431.668 456.849 433.396 459.089C435.124 461.329 435.988 464.209 435.988 467.729C435.988 471.249 435.124 474.161 433.396 476.465C431.668 478.705 429.3 480.369 426.292 481.457C423.284 482.545 419.892 483.089 416.116 483.089ZM416.116 481.361C417.524 481.361 418.644 480.369 419.476 478.385C420.372 476.401 420.82 472.849 420.82 467.729C420.82 462.609 420.372 459.089 419.476 457.169C418.644 455.185 417.524 454.193 416.116 454.193C414.644 454.193 413.492 455.185 412.66 457.169C411.828 459.089 411.412 462.609 411.412 467.729C411.412 472.849 411.828 476.401 412.66 478.385C413.492 480.369 414.644 481.361 416.116 481.361ZM431.38 460.817L429.364 460.145C430.388 457.521 431.956 455.409 434.068 453.809C436.244 452.145 438.612 451.313 441.172 451.313C443.284 451.313 444.852 451.889 445.876 453.041C446.964 454.193 447.508 455.697 447.508 457.553C447.508 459.409 446.996 460.849 445.972 461.873C445.012 462.833 443.86 463.313 442.516 463.313C441.364 463.313 440.308 462.929 439.348 462.161C438.388 461.329 437.844 460.113 437.716 458.513C437.588 456.849 438.164 454.769 439.444 452.273L440.02 452.849C437.652 453.681 435.828 454.705 434.548 455.921C433.332 457.137 432.276 458.769 431.38 460.817ZM534.49 435.569V437.489C532.506 437.809 531.002 438.417 529.978 439.313C528.954 440.209 528.282 441.585 527.962 443.441C527.642 445.297 527.482 447.921 527.482 451.313V475.601C527.482 479.697 527.194 483.473 526.618 486.929C526.106 490.385 525.082 493.393 523.546 495.953C521.882 498.705 519.418 500.881 516.154 502.481C512.89 504.081 508.666 504.881 503.482 504.881C500.538 504.881 497.466 504.529 494.266 503.825C491.13 503.185 488.314 501.969 485.818 500.177C483.706 498.513 482.074 496.561 480.922 494.321C479.834 492.081 479.098 489.457 478.714 486.449C478.33 483.377 478.138 479.857 478.138 475.889V445.745C478.138 443.377 477.946 441.649 477.562 440.561C477.242 439.409 476.57 438.641 475.546 438.257C474.586 437.809 473.114 437.553 471.13 437.489V435.569C472.858 435.633 475.162 435.697 478.042 435.761C480.922 435.825 483.93 435.857 487.066 435.857C490.202 435.857 493.21 435.825 496.09 435.761C498.97 435.697 501.37 435.633 503.29 435.569V437.489C501.114 437.553 499.45 437.809 498.298 438.257C497.21 438.641 496.474 439.409 496.09 440.561C495.706 441.649 495.514 443.377 495.514 445.745V483.473C495.514 486.609 495.738 489.329 496.186 491.633C496.698 493.937 497.434 495.825 498.394 497.297C499.418 498.769 500.73 499.857 502.33 500.561C503.93 501.201 505.85 501.521 508.09 501.521C512.506 501.521 515.962 500.497 518.458 498.449C520.954 496.337 522.714 493.393 523.738 489.617C524.762 485.841 525.274 481.521 525.274 476.657V452.849C525.274 448.945 525.082 445.969 524.698 443.921C524.314 441.809 523.45 440.305 522.106 439.409C520.762 438.449 518.65 437.809 515.77 437.489V435.569C516.986 435.633 518.586 435.697 520.57 435.761C522.618 435.825 524.538 435.857 526.33 435.857C527.802 435.857 529.274 435.825 530.746 435.761C532.282 435.697 533.53 435.633 534.49 435.569ZM512.026 413.681C513.434 412.913 514.97 412.721 516.634 413.105C518.362 413.489 519.61 414.513 520.378 416.177C521.082 417.585 521.146 419.025 520.57 420.497C520.058 421.905 519.066 422.993 517.594 423.761C516.122 424.593 514.522 425.169 512.794 425.489C511.066 425.809 508.986 426.225 506.554 426.737C504.122 427.249 501.05 428.145 497.338 429.425L496.666 428.273C499.738 425.713 502.106 423.505 503.77 421.649C505.434 419.729 506.842 418.097 507.994 416.753C509.21 415.409 510.554 414.385 512.026 413.681ZM558.446 438.161V453.809H568.814V455.729H558.446V494.993C558.446 496.593 558.734 497.745 559.31 498.449C559.886 499.089 560.75 499.409 561.902 499.409C562.862 499.409 563.854 499.089 564.878 498.449C565.966 497.809 566.958 496.721 567.854 495.185L569.39 496.145C568.174 498.769 566.478 500.881 564.302 502.481C562.19 504.081 559.406 504.881 555.95 504.881C553.838 504.881 551.95 504.593 550.286 504.017C548.686 503.505 547.342 502.705 546.254 501.617C544.846 500.209 543.918 498.481 543.47 496.433C543.086 494.321 542.894 491.601 542.894 488.273V455.729H535.214V453.809H542.894V441.809C545.902 441.809 548.654 441.521 551.15 440.945C553.71 440.369 556.142 439.441 558.446 438.161ZM651.639 435.569C651.383 439.089 651.191 442.481 651.063 445.745C650.999 449.009 650.967 451.505 650.967 453.233C650.967 454.641 650.999 455.953 651.063 457.169C651.127 458.385 651.191 459.441 651.255 460.337H649.047C647.767 454.641 646.231 450.161 644.439 446.897C642.647 443.569 640.599 441.233 638.295 439.889C636.055 438.481 633.623 437.777 630.999 437.777H629.847V492.593C629.847 495.217 630.103 497.169 630.615 498.449C631.191 499.729 632.215 500.593 633.687 501.041C635.223 501.425 637.431 501.617 640.311 501.617V503.537C638.199 503.473 635.351 503.409 631.767 503.345C628.247 503.281 624.567 503.249 620.727 503.249C616.951 503.249 613.399 503.281 610.071 503.345C606.743 503.409 604.055 503.473 602.007 503.537V501.617C604.887 501.617 607.095 501.425 608.631 501.041C610.167 500.593 611.191 499.729 611.703 498.449C612.215 497.169 612.471 495.217 612.471 492.593V437.777H611.415C608.727 437.777 606.263 438.481 604.023 439.889C601.783 441.233 599.767 443.537 597.975 446.801C596.183 450.065 594.615 454.577 593.271 460.337H591.063C591.191 459.441 591.255 458.385 591.255 457.169C591.319 455.953 591.351 454.641 591.351 453.233C591.351 451.505 591.287 449.009 591.159 445.745C591.095 442.481 590.935 439.089 590.679 435.569C593.687 435.633 596.983 435.697 600.567 435.761C604.215 435.825 607.831 435.857 611.415 435.857C614.999 435.857 618.263 435.857 621.207 435.857C624.151 435.857 627.415 435.857 630.999 435.857C634.647 435.857 638.263 435.825 641.847 435.761C645.431 435.697 648.695 435.633 651.639 435.569ZM676.384 428.465V460.529C677.984 457.585 680.096 455.505 682.72 454.289C685.408 453.073 688.48 452.465 691.936 452.465C694.752 452.465 696.992 452.817 698.656 453.521C700.384 454.225 701.696 455.121 702.592 456.209C703.616 457.425 704.352 458.993 704.8 460.913C705.248 462.833 705.472 465.425 705.472 468.689V494.609C705.472 497.297 705.888 499.121 706.72 500.081C707.616 501.041 709.12 501.521 711.232 501.521V503.537C710.016 503.473 708.128 503.409 705.568 503.345C703.072 503.217 700.608 503.153 698.176 503.153C695.616 503.153 693.12 503.217 690.688 503.345C688.256 503.409 686.4 503.473 685.12 503.537V501.521C686.912 501.521 688.16 501.041 688.864 500.081C689.568 499.121 689.92 497.297 689.92 494.609V464.081C689.92 462.609 689.76 461.361 689.44 460.337C689.12 459.249 688.576 458.449 687.808 457.937C687.104 457.361 686.048 457.073 684.64 457.073C683.168 457.073 681.792 457.457 680.512 458.225C679.296 458.929 678.304 459.985 677.536 461.393C676.768 462.737 676.384 464.305 676.384 466.097V494.609C676.384 497.297 676.736 499.121 677.44 500.081C678.208 501.041 679.456 501.521 681.184 501.521V503.537C680.032 503.473 678.304 503.409 676 503.345C673.696 503.217 671.328 503.153 668.896 503.153C666.336 503.153 663.712 503.217 661.024 503.345C658.4 503.409 656.416 503.473 655.072 503.537V501.521C657.184 501.521 658.656 501.041 659.488 500.081C660.384 499.121 660.832 497.297 660.832 494.609V439.985C660.832 437.105 660.416 434.993 659.584 433.649C658.816 432.241 657.312 431.537 655.072 431.537V429.521C657.12 429.713 659.104 429.809 661.024 429.809C663.968 429.809 666.72 429.713 669.28 429.521C671.84 429.265 674.208 428.913 676.384 428.465ZM739.766 452.465C744.566 452.465 748.758 453.329 752.342 455.057C755.99 456.721 758.806 459.473 760.79 463.313C762.838 467.153 763.862 472.273 763.862 478.673C763.862 485.073 762.838 490.193 760.79 494.033C758.806 497.873 755.99 500.657 752.342 502.385C748.758 504.049 744.566 504.881 739.766 504.881C735.03 504.881 730.838 504.049 727.19 502.385C723.606 500.657 720.79 497.873 718.742 494.033C716.694 490.193 715.67 485.073 715.67 478.673C715.67 472.273 716.694 467.153 718.742 463.313C720.79 459.473 723.606 456.721 727.19 455.057C730.838 453.329 735.03 452.465 739.766 452.465ZM739.766 454.385C737.526 454.385 735.638 456.305 734.102 460.145C732.63 463.921 731.894 470.097 731.894 478.673C731.894 487.249 732.63 493.457 734.102 497.297C735.638 501.073 737.526 502.961 739.766 502.961C742.07 502.961 743.958 501.073 745.43 497.297C746.902 493.457 747.638 487.249 747.638 478.673C747.638 470.097 746.902 463.921 745.43 460.145C743.958 456.305 742.07 454.385 739.766 454.385ZM782.42 504.209C779.476 504.209 777.044 503.665 775.124 502.577C773.204 501.425 771.796 499.921 770.9 498.065C770.004 496.209 769.556 494.225 769.556 492.113C769.556 489.425 770.164 487.217 771.38 485.489C772.66 483.761 774.292 482.385 776.276 481.361C778.26 480.273 780.34 479.377 782.516 478.673C784.692 477.969 786.772 477.297 788.756 476.657C790.74 475.953 792.34 475.153 793.556 474.257C794.772 473.297 795.38 472.081 795.38 470.609V462.641C795.38 461.233 795.156 459.921 794.708 458.705C794.324 457.425 793.588 456.401 792.5 455.633C791.476 454.801 790.036 454.385 788.18 454.385C787.028 454.385 785.908 454.545 784.82 454.865C783.732 455.185 782.772 455.697 781.94 456.401C783.988 457.105 785.492 458.161 786.452 459.569C787.476 460.977 787.988 462.545 787.988 464.273C787.988 466.641 787.156 468.529 785.492 469.937C783.892 471.281 781.972 471.953 779.732 471.953C777.3 471.953 775.412 471.185 774.068 469.649C772.788 468.113 772.148 466.257 772.148 464.081C772.148 462.161 772.628 460.561 773.588 459.281C774.548 457.937 775.956 456.721 777.812 455.633C779.668 454.545 781.908 453.745 784.532 453.233C787.156 452.721 789.94 452.465 792.884 452.465C795.892 452.465 798.644 452.785 801.14 453.425C803.7 454.001 805.876 455.185 807.668 456.977C809.076 458.449 809.972 460.241 810.356 462.353C810.74 464.465 810.932 467.153 810.932 470.417V496.337C810.932 497.937 811.06 499.057 811.316 499.697C811.636 500.273 812.116 500.561 812.756 500.561C813.332 500.561 813.876 500.401 814.388 500.081C814.9 499.761 815.412 499.409 815.924 499.025L816.98 500.657C815.572 501.809 813.908 502.705 811.988 503.345C810.068 503.921 807.988 504.209 805.748 504.209C803.188 504.209 801.172 503.889 799.7 503.249C798.292 502.545 797.268 501.617 796.628 500.465C796.052 499.313 795.732 498.033 795.668 496.625C794.26 498.929 792.5 500.785 790.388 502.193C788.276 503.537 785.62 504.209 782.42 504.209ZM790.388 497.297C791.412 497.297 792.308 497.105 793.076 496.721C793.908 496.273 794.676 495.537 795.38 494.513V474.545C794.868 475.441 794.164 476.305 793.268 477.137C792.436 477.905 791.54 478.705 790.58 479.537C789.62 480.305 788.692 481.169 787.796 482.129C786.964 483.089 786.26 484.241 785.684 485.585C785.172 486.865 784.916 488.433 784.916 490.289C784.916 492.785 785.428 494.577 786.452 495.665C787.476 496.753 788.788 497.297 790.388 497.297Z" fill="black"/>
<defs>
<filter id="filter0_d_3_142" x="211.5" y="0" width="369.233" height="432.339" filterUnits="userSpaceOnUse" color-interpolation-filters="sRGB">
<feFlood flood-opacity="0" result="BackgroundImageFix"/>
<feColorMatrix in="SourceAlpha" type="matrix" values="0 0 0 0 0 0 0 0 0 0 0 0 0 0 0 0 0 0 127 0" result="hardAlpha"/>
<feOffset dy="10"/>
<feGaussianBlur stdDeviation="7.5"/>
<feComposite in2="hardAlpha" operator="out"/>
<feColorMatrix type="matrix" values="0 0 0 0 0.631373 0 0 0 0 0.533333 0 0 0 0 0.498039 0 0 0 0.3 0"/>
<feBlend mode="normal" in2="BackgroundImageFix" result="effect1_dropShadow_3_142"/>
<feBlend mode="normal" in="SourceGraphic" in2="effect1_dropShadow_3_142" result="shape"/>
</filter>
<linearGradient id="paint0_linear_3_142" x1="396" y1="5.49994" x2="396" y2="406.537" gradientUnits="userSpaceOnUse">
<stop offset="0.769231" stop-color="#E1B61B"/>
<stop offset="0.918269" stop-color="#FDD835"/>
<stop offset="0.966346" stop-color="#FFC107"/>
</linearGradient>
<linearGradient id="paint1_linear_3_142" x1="396" y1="5.49994" x2="396" y2="406.537" gradientUnits="userSpaceOnUse">
<stop offset="0.600962" stop-color="#E1B61B"/>
<stop offset="0.884615" stop-color="#FFC107"/>
<stop offset="0.884715" stop-color="#FDD835"/>
</linearGradient>
<linearGradient id="paint2_linear_3_142" x1="396" y1="5.49994" x2="396" y2="406.537" gradientUnits="userSpaceOnUse">
<stop offset="0.399038" stop-color="#E1B61B"/>
<stop offset="0.504808" stop-color="#FDD835"/>
<stop offset="0.9996" stop-color="#FFC107"/>
</linearGradient>
<linearGradient id="paint3_linear_3_142" x1="396" y1="5.49994" x2="396" y2="406.537" gradientUnits="userSpaceOnUse">
<stop stop-color="#E1B61B"/>
<stop offset="1" stop-color="#7B640F"/>
</linearGradient>
<linearGradient id="paint4_linear_3_142" x1="396" y1="5.49994" x2="396" y2="406.537" gradientUnits="userSpaceOnUse">
<stop stop-color="#E1B61B"/>
<stop offset="1" stop-color="#7B640F"/>
</linearGradient>
<linearGradient id="paint5_linear_3_142" x1="396" y1="5.49994" x2="396" y2="406.537" gradientUnits="userSpaceOnUse">
<stop stop-color="#0B7615"/>
<stop offset="0.144231" stop-color="#0B7A16"/>
<stop offset="1" stop-color="#14DC27"/>
</linearGradient>
<linearGradient id="paint6_linear_3_142" x1="396" y1="5.49994" x2="396" y2="406.537" gradientUnits="userSpaceOnUse">
<stop stop-color="#1B5E20"/>
<stop offset="0.697115" stop-color="#388E3C"/>
<stop offset="0.831731" stop-color="#0B7615"/>
</linearGradient>
</defs>
</svg>
